# xmcd
#
# Track frame offsets:
#        150
#        11050
#        29492
#        39110
#        52145
#        65170
#        81925
#        101750
#        112320
#        128392
#        140752
#        151767
#        164775
#        177867
#        192862
#        208675
#        222175
#        234342
#        250515
#        275440
#        292022
#        324137
#
# Disc length: 4628 seconds
#
# Revision: 0
# Processed by: cddbd v1.5.1PL0 Copyright (c) Steve Scherf et al.
# Submitted via: ExactAudioCopy v0.95a5
#
DISCID=43121216
DTITLE=Aretha Franklin - Aretha, The Queen! Singers Singer
DYEAR=1900
DGENRE=Soul
TTITLE0=Respect
TTITLE1=Drown in My Own Tears
TTITLE2=Good Times
TTITLE3=Never Let Me Go
TTITLE4=Groovin'
TTITLE5=People Get Ready
TTITLE6=I Wonder
TTITLE7=The House That Jack Built
TTITLE8=I Say a Little Prayer
TTITLE9=See Saw
TTITLE10=You Send Me
TTITLE11=The Weight
TTITLE12=Tracks of My Tears
TTITLE13=Share Your Love with Me
TTITLE14=Let It Be
TTITLE15=Don't Play That Song
TTITLE16=That's All I Want from You
TTITLE17=You're All I Need to Get By
TTITLE18=Bridge Over Troubled Water
TTITLE19=Oh Me Oh My (I'm a Fool for You Baby)
TTITLE20=That's The Way I Feel About Cha
TTITLE21=With Pen in Hand
EXTD=
EXTT0=
EXTT1=
EXTT2=
EXTT3=
EXTT4=
EXTT5=
EXTT6=
EXTT7=
EXTT8=
EXTT9=
EXTT10=
EXTT11=
EXTT12=
EXTT13=
EXTT14=
EXTT15=
EXTT16=
EXTT17=
EXTT18=
EXTT19=
EXTT20=
EXTT21=
PLAYORDER=
